<!-- icon666.com - MILLIONS vector ICONS FREE --><svg viewBox="0 0 48 48" xmlns="http://www.w3.org/2000/svg"><g id="Line"><path d="m24 7v11h-22v-6a5 5 0 0 1 5-5z" fill="#b58100"></path><path d="m2 16h22v30h-17a5 5 0 0 1 -5-5z" fill="#f5c12e"></path><path d="m14 2h-2a3 3 0 0 0 -3 3v6a1 1 0 0 0 1 1h6a1 1 0 0 0 1-1v-6a3 3 0 0 0 -3-3z" fill="#f5c12e"></path><path d="m20 22h-5a1 1 0 0 0 0 2h5a1 1 0 0 1 1 1v4a1 1 0 0 1 -1 1h-5a1 1 0 0 0 0 2h5a1 1 0 0 1 1 1v4a1 1 0 0 1 -1 1h-5a1 1 0 0 0 0 2h5a3 3 0 0 0 3-3v-4a3 3 0 0 0 -.77-2 3 3 0 0 0 .77-2v-4a3 3 0 0 0 -3-3z" fill="#b58100"></path><path d="m36 2h-2a3 3 0 0 0 -3 3v6a1 1 0 0 0 1 1h6a1 1 0 0 0 1-1v-6a3 3 0 0 0 -3-3z" fill="#f0ab00"></path><path d="m46 12v4h-22v-9h7v4a1 1 0 0 0 1 1h6a1 1 0 0 0 1-1v-4h2a5 5 0 0 1 5 5z" fill="#936500"></path><path d="m24 16v30h17a5 5 0 0 0 5-5v-25zm9 24h-4a1 1 0 0 1 0-2h1v-12.59l-.29.3a1 1 0 0 1 -1.42-1.42l2-2a1 1 0 0 1 1.09-.21 1 1 0 0 1 .62.92v15h1a1 1 0 0 1 0 2z" fill="#f0ab00"></path><path d="m34 39a1 1 0 0 1 -1 1h-4a1 1 0 0 1 0-2h1v-12.59l-.29.3a1 1 0 0 1 -1.42-1.42l2-2a1 1 0 0 1 1.09-.21 1 1 0 0 1 .62.92v15h1a1 1 0 0 1 1 1z" fill="#936500"></path></g></svg>