<!-- icon666.com - MILLIONS vector ICONS FREE --><svg version="1.1" id="Capa_1" xmlns="http://www.w3.org/2000/svg" xmlns:xlink="http://www.w3.org/1999/xlink" x="0px" y="0px" viewBox="0 0 512 512" style="enable-background:new 0 0 512 512;" xml:space="preserve"><path style="fill:#FEA832;" d="M512,317v90c0,41.7-115.901,45-151,45s-151-3.3-151-45v-90H512z"></path><path style="fill:#FE9923;" d="M512,317v90c0,41.7-115.901,45-151,45V317H512z"></path><path style="fill:#E1E4FB;" d="M512,227v90c0,41.7-115.901,45-151,45s-151-3.3-151-45v-90H512z"></path><path style="fill:#FFCC33;" d="M512,227v90c0,41.7-115.901,45-151,45V227H512z"></path><path style="fill:#FEA832;" d="M512,137v90c0,41.7-115.901,45-151,45s-151-3.3-151-45v-90H512z"></path><path style="fill:#FE9923;" d="M512,137v90c0,41.7-115.901,45-151,45V137H512z"></path><path style="fill:#FEDB41;" d="M512,45v92c0,41.7-115.901,45-151,45s-151-3.3-151-45V45H512z"></path><path style="fill:#FFCC33;" d="M512,45v92c0,41.7-115.901,45-151,45V45H512z"></path><path style="fill:#FEA832;" d="M361,0c-35.099,0-151,3.3-151,45s115.901,45,151,45s151-3.3,151-45S396.099,0,361,0z"></path><path style="fill:#FE9923;" d="M512,45c0,41.7-115.901,45-151,45V0C396.099,0,512,3.3,512,45z"></path><path style="fill:#FEDB41;" d="M195,122C87.599,122,0,209.599,0,317c0,107.399,87.599,195,195,195s196-87.601,196-195 C391,209.599,302.401,122,195,122z"></path><path style="fill:#FEA832;" d="M195,152c-90.901,0-165,74.099-165,165c0,90.899,74.099,165,165,165s166-74.101,166-165 C361,226.099,285.901,152,195,152z"></path><path style="fill:#FFCC33;" d="M391,317c0,107.399-88.599,195-196,195V122C302.401,122,391,209.599,391,317z"></path><path style="fill:#FEA832;" d="M361,317c0,90.899-75.099,165-166,165V152C285.901,152,361,226.099,361,317z"></path><path style="fill:#FEDB41;" d="M195,182c-74.399,0-135,60.599-135,135c0,74.399,60.601,135,135,135s136-60.601,136-135 C331,242.599,269.399,182,195,182z"></path><path style="fill:#FFCC33;" d="M331,317c0,74.399-61.601,135-136,135V182C269.399,182,331,242.599,331,317z"></path><path style="fill:#FEA832;" d="M240,347c0,19.499-12.599,36-30,42.299V407c0,8.399-6.599,15-15,15s-15-6.601-15-15v-17.701 c-17.401-6.299-30-22.8-30-42.299c0-8.401,6.599-15,15-15s15,6.599,15,15c0,8.399,6.599,15,15,15s15-6.601,15-15 c0-8.401-6.599-15-15-15c-24.901,0-45-20.101-45-45c0-19.501,12.599-36,30-42.301V227c0-8.401,6.599-15,15-15s15,6.599,15,15v17.699 c17.401,6.301,30,22.8,30,42.301c0,8.399-6.599,15-15,15s-15-6.601-15-15c0-8.401-6.599-15-15-15s-15,6.599-15,15 c0,8.399,6.599,15,15,15C219.901,302,240,322.099,240,347z"></path><g><path style="fill:#FE9923;" d="M240,347c0,19.499-12.599,36-30,42.299V407c0,8.399-6.599,15-15,15v-60c8.401,0,15-6.601,15-15 c0-8.401-6.599-15-15-15v-30C219.901,302,240,322.099,240,347z"></path><path style="fill:#FE9923;" d="M195,272v-60c8.401,0,15,6.599,15,15v17.699c17.401,6.301,30,22.8,30,42.301c0,8.399-6.599,15-15,15 s-15-6.601-15-15C210,278.599,203.401,272,195,272z"></path></g></svg>